<svg width="15" height="15" viewBox="0 0 15 15" fill="none" xmlns="http://www.w3.org/2000/svg">
<path d="M7.5 15.0001C6.87445 15.0001 6.36735 14.493 6.36735 13.8674V8.61579H1.1157C0.499516 8.61579 0 8.11628 0 7.50009C0 6.88391 0.499517 6.38439 1.1157 6.38439H6.36735V1.13275C6.36735 0.507198 6.87445 9.15527e-05 7.5 9.15527e-05C8.12555 9.15527e-05 8.63265 0.507197 8.63265 1.13274V6.38439H13.8843C14.5005 6.38439 15 6.88391 15 7.50009C15 8.11628 14.5005 8.61579 13.8843 8.61579H8.63265V13.8674C8.63265 14.493 8.12555 15.0001 7.5 15.0001Z" fill="#0097FF"/>
</svg>
