<svg width="190" height="110" viewBox="0 0 190 110" fill="none" xmlns="http://www.w3.org/2000/svg">
<path d="M123.992 101.465L122.55 104.31H125.4L123.992 101.465Z" fill="white"/>
<path d="M189.863 42.6626C189.748 42.3032 189.568 41.9678 189.331 41.6731C189.158 41.4462 188.933 41.2627 188.675 41.1372C188.453 41.0435 188.214 40.9953 187.973 40.9953C187.732 40.9953 187.493 41.0435 187.271 41.1372C187.053 41.2425 186.859 41.3914 186.702 41.5744C186.545 41.7574 186.427 41.9707 186.357 42.2009C186.232 42.5966 186.357 42.6543 186.274 43.2398C186.21 43.6933 186.046 44.1271 185.792 44.5096C185.538 44.8961 185.185 45.2091 184.77 45.4166C184.33 45.6701 183.811 45.7563 183.312 45.6592C182.812 45.5622 182.365 45.2884 182.053 44.8889C180.907 43.6108 181.563 41.4175 181.887 36.5527C181.937 35.8189 182.037 32.7269 182.061 31.6055C182.061 29.8245 182.153 28.0352 182.136 26.2542C182.136 24.0527 182.037 22.3212 181.987 21.2245C181.987 21.0596 181.929 20.1609 181.821 18.3799C181.774 16.6283 181.633 14.8805 181.397 13.144C181.264 12.208 181.044 11.2861 180.74 10.3901C180.478 9.5696 180.107 8.7876 179.635 8.06488C179.004 7.1801 178.226 6.40785 177.334 5.7809C176.282 4.93871 175.143 4.20907 173.936 3.60412C171.076 2.24596 167.965 1.4854 164.797 1.36961C163.844 1.28462 162.886 1.25983 161.93 1.2954C160.873 1.32364 159.82 1.43669 158.781 1.63347C157.73 1.88205 156.706 2.2328 155.724 2.68063C149.792 5.76441 146.194 10.7199 146.045 16.1206C145.97 19.3199 147.166 25.8337 152.334 27.9858C154.513 28.8062 156.912 28.8528 159.122 28.1177C159.465 28.0149 159.834 28.0514 160.15 28.2192C160.465 28.387 160.701 28.6723 160.804 29.0123C160.908 29.3524 160.871 29.7193 160.702 30.0325C160.533 30.3456 160.246 30.5792 159.903 30.682C158.557 31.0928 157.157 31.3067 155.749 31.3169C154.224 31.3392 152.71 31.0588 151.295 30.4924C144.79 27.7879 143.27 19.8888 143.378 16.0877C143.519 11.1404 146.161 6.45703 150.456 2.95273C150.533 2.89073 150.591 2.80969 150.626 2.71792C150.66 2.62614 150.669 2.52693 150.652 2.43045C150.635 2.33397 150.593 2.24368 150.529 2.16883C150.466 2.09399 150.383 2.03728 150.29 2.00451C149.758 1.80662 149.277 1.62522 148.778 1.45207C147.775 1.11098 146.751 0.835545 145.712 0.627526C143.965 0.230665 142.179 0.0233145 140.387 0.00912105C139.042 -0.0201741 137.697 0.0211107 136.357 0.132802C134.868 0.29161 133.39 0.533862 131.929 0.858398C130.883 1.11133 129.851 1.4196 128.838 1.78188C127.191 2.31919 125.589 2.98075 124.044 3.76078C123.202 4.17218 122.384 4.62911 121.593 5.12952C120.462 5.81784 119.384 6.58958 118.369 7.43823C117.217 8.34761 116.134 9.33973 115.129 10.4066L114.788 10.7776C115.299 11.2285 115.751 11.741 116.134 12.303C116.634 13.0721 117.028 13.904 117.306 14.7766C117.612 15.6698 117.834 16.5889 117.971 17.5224C118.191 19.1384 118.324 20.7651 118.369 22.3954C118.461 24.0445 118.511 24.8195 118.519 24.968V25.0339C118.569 26.0564 118.643 27.59 118.652 29.5606C118.652 30.8964 118.652 32.2404 118.602 33.5432V34.4172C118.602 35.3901 118.486 38.2101 118.444 38.9192C118.369 40.0653 118.27 41.03 118.187 41.8793C118.02 43.5861 117.887 44.9301 118.187 45.2846C118.26 45.3793 118.362 45.4485 118.477 45.4825C118.577 45.4723 118.673 45.4413 118.76 45.3918C118.89 45.3225 118.999 45.22 119.076 45.095C119.175 44.9348 119.238 44.7545 119.258 44.5673C119.268 44.5044 119.268 44.4405 119.258 44.3776C119.235 44.0544 119.275 43.7297 119.375 43.4212C119.503 43.0064 119.717 42.6228 120.003 42.2948C120.289 41.9668 120.641 41.7017 121.036 41.5165C121.452 41.332 121.902 41.2364 122.357 41.2361C122.79 41.2333 123.218 41.3233 123.612 41.5C124.066 41.7072 124.465 42.018 124.775 42.407C125.126 42.8339 125.391 43.3238 125.556 43.8499C125.881 45.0366 125.781 46.2985 125.274 47.4202C124.392 49.5522 122.746 51.285 120.654 52.285C119.349 52.8736 117.933 53.1826 116.5 53.192C115.657 53.1912 114.818 53.0746 114.007 52.8457C114.007 53.9121 114.007 54.9757 114.007 56.0366C113.958 56.7209 114.152 57.4007 114.556 57.9578C114.821 58.2498 115.152 58.4764 115.521 58.6195C115.89 58.7626 116.288 58.8184 116.683 58.7824H128.422C128.708 58.7813 128.99 58.7242 129.252 58.6145C129.515 58.5047 129.753 58.3444 129.953 58.1428C130.153 57.9412 130.311 57.7023 130.418 57.4399C130.524 57.1775 130.578 56.8967 130.574 56.6138C130.567 55.6908 130.299 54.7882 129.802 54.0083C129.352 53.3124 129.118 52.5012 129.129 51.6748C129.129 51.2955 129.129 50.8503 129.129 50.2401C129.129 50.1164 129.129 49.6547 129.129 49.094C129.099 47.944 129.302 46.7997 129.726 45.729C130.15 44.6584 130.786 43.6832 131.598 42.8612C132.409 42.0392 133.378 41.3873 134.447 40.944C135.517 40.5007 136.666 40.2752 137.825 40.2807C138.984 40.2862 140.13 40.5227 141.195 40.9762C142.261 41.4296 143.224 42.0908 144.027 42.9204C144.83 43.7501 145.457 44.7313 145.87 45.806C146.284 46.8806 146.476 48.0268 146.435 49.1765C146.435 50.5534 146.435 51.4522 146.435 51.6996C146.435 52.153 146.435 51.6996 146.435 56.0201C146.39 56.6914 146.577 57.3577 146.967 57.9083C147.229 58.2028 147.557 58.4312 147.926 58.5746C148.294 58.718 148.692 58.7722 149.085 58.7329H160.875C161.16 58.7318 161.442 58.6748 161.705 58.565C161.968 58.4552 162.206 58.2949 162.406 58.0933C162.606 57.8917 162.764 57.6529 162.87 57.3904C162.977 57.128 163.03 56.8473 163.027 56.5643C163.019 55.6413 162.752 54.7388 162.254 53.9588C161.819 53.2784 161.589 52.4889 161.59 51.6831C161.59 48.0111 161.59 44.3419 161.59 40.6755C161.59 40.5353 161.681 39.8921 161.706 39.752C161.873 38.3012 162.596 36.9698 163.725 36.0333C164.431 35.5293 165.26 35.2218 166.126 35.1428C167.051 35.0136 167.993 35.1199 168.865 35.4516C169.737 35.7834 170.51 36.3297 171.111 37.0392C171.356 37.3844 171.557 37.7583 171.709 38.1524C172.382 39.6825 172.81 41.3069 172.98 42.9677C173.115 44.5542 173.69 46.0727 174.642 47.3542C175.528 48.5586 176.717 49.5111 178.09 50.1164C179.248 50.5854 180.491 50.8135 181.741 50.7865C182.992 50.7596 184.223 50.4782 185.36 49.9598C187.287 49.0411 188.803 47.4459 189.614 45.4825C190.021 44.599 190.109 43.603 189.863 42.6626ZM170.272 18.1078C169.736 18.0892 169.228 17.8693 168.85 17.4926C168.472 17.116 168.253 16.6108 168.236 16.0794C168.242 15.551 168.452 15.045 168.824 14.666C169.195 14.287 169.698 14.0639 170.23 14.0428C170.769 14.0665 171.28 14.2879 171.664 14.6642C172.048 15.0405 172.277 15.5449 172.307 16.0794C172.271 16.604 172.045 17.0979 171.671 17.4705C171.297 17.8431 170.8 18.0694 170.272 18.1078Z" fill="#FF464B"/>
<path d="M64.4909 45.8279C64.4035 45.5272 64.2602 45.2457 64.0686 44.9982C63.9304 44.8158 63.7518 44.6681 63.5469 44.5668C63.3701 44.4917 63.18 44.453 62.988 44.453C62.7959 44.453 62.6058 44.4917 62.429 44.5668C62.2581 44.6488 62.1054 44.7645 61.9802 44.9071C61.855 45.0497 61.7598 45.2161 61.7003 45.3965C61.601 45.7118 61.7003 45.7615 61.6341 46.2262C61.5899 46.6112 61.4566 46.9805 61.2449 47.3048C61.0386 47.6177 60.7528 47.8697 60.4168 48.035C60.0667 48.2445 59.6517 48.3172 59.2513 48.2391C58.851 48.161 58.4935 47.9376 58.2473 47.6118C57.3365 46.583 57.8581 44.8157 58.1148 40.8994C58.1148 40.3103 58.2391 37.8212 58.2556 36.9417C58.2556 35.5063 58.3301 34.0709 58.3219 32.6355C58.3219 30.8682 58.2391 29.4659 58.1976 28.5864C58.1976 28.4537 58.148 27.7567 58.0652 26.2964C58.0273 24.8864 57.914 23.4794 57.7257 22.0815C57.6172 21.3283 57.4398 20.5867 57.1957 19.8661C56.7493 18.3483 55.7889 17.0339 54.4797 16.149C53.6421 15.4631 52.7345 14.8679 51.7719 14.3734C49.4936 13.2835 47.0163 12.6736 44.4933 12.5812C43.7335 12.5133 42.9701 12.4939 42.2079 12.5232C41.3739 12.5478 40.5431 12.6394 39.7237 12.797C38.8843 12.9926 38.0661 13.2705 37.2809 13.6267C32.5527 16.1158 29.6877 20.0985 29.5635 24.413C29.4972 26.9602 30.4495 32.2289 34.5318 33.963C36.2703 34.6248 38.1839 34.6629 39.9473 34.0709C40.0857 34.0159 40.2341 33.9903 40.3829 33.9957C40.5318 34.0012 40.6779 34.0375 40.812 34.1024C40.9461 34.1673 41.0653 34.2594 41.1621 34.3728C41.2589 34.4862 41.3311 34.6186 41.3742 34.7614C41.4173 34.9043 41.4304 35.0545 41.4126 35.2027C41.3947 35.3508 41.3464 35.4937 41.2707 35.6222C41.1949 35.7507 41.0934 35.862 40.9725 35.9492C40.8516 36.0364 40.714 36.0974 40.5683 36.1286C39.4949 36.4599 38.3792 36.6332 37.2561 36.643C36.0401 36.65 34.8351 36.413 33.712 35.946C28.5201 33.7639 27.3111 27.4083 27.3939 24.33C27.5016 20.3391 29.6131 16.5805 33.0413 13.7594C33.1014 13.7096 33.1475 13.6448 33.1749 13.5716C33.2024 13.4984 33.2102 13.4193 33.1976 13.3421C33.1851 13.2649 33.1526 13.1923 33.1033 13.1316C33.0541 13.071 32.9899 13.0242 32.9171 12.9961C32.4948 12.8385 32.089 12.6891 31.7081 12.5481C30.8957 12.2719 30.0658 12.0501 29.2239 11.8843C27.8301 11.5649 26.4058 11.398 24.976 11.3865C23.9041 11.363 22.8316 11.3962 21.7632 11.486C20.5773 11.6129 19.3996 11.8068 18.2356 12.0668C17.3948 12.2709 16.5656 12.5202 15.7515 12.8136C14.4375 13.2459 13.1586 13.7785 11.9259 14.4066C11.2625 14.7499 10.6184 15.1294 9.99648 15.5433C9.12013 16.1113 8.28703 16.7436 7.50403 17.4351C6.58574 18.1673 5.72225 18.9659 4.9205 19.8247C3.7271 21.1195 2.69038 22.551 1.83185 24.0894C1.19049 25.1102 0.710092 26.2241 0.40759 27.3917C0.184927 28.1397 0.0487846 28.9108 0.00184206 29.69C-0.00904737 29.8351 0.0285664 29.9797 0.108755 30.101C0.188945 30.2224 0.307149 30.3135 0.444738 30.3601C0.582326 30.4067 0.731475 30.4061 0.868677 30.3583C1.00588 30.3106 1.12333 30.2185 1.20252 30.0965C1.63742 29.403 2.13051 28.748 2.67646 28.1384C2.61022 28.5533 2.56882 28.9266 2.55226 29.1921C2.49429 30.0965 2.70131 32.8429 2.75099 33.7722C2.80067 34.7014 3.71153 39.323 3.97651 43.7785V44.8157C3.97651 48.7264 3.97651 52.6371 3.97651 56.5478C3.93881 57.0978 4.09404 57.6437 4.41538 58.0911C4.62112 58.3239 4.8774 58.5062 5.16451 58.6242C5.45162 58.7421 5.7619 58.7925 6.0715 58.7715H15.4285C15.6561 58.7704 15.8812 58.7241 16.0909 58.6354C16.3005 58.5466 16.4905 58.4171 16.6499 58.2543C16.8093 58.0915 16.9349 57.8987 17.0195 57.6869C17.104 57.4752 17.1459 57.2488 17.1426 57.0208C17.137 56.2776 16.9248 55.5507 16.5298 54.9216C16.2012 54.3764 16.0319 53.7497 16.0413 53.1128C16.0413 52.8058 16.0413 52.4408 16.0413 51.9595C16.0413 51.86 16.0413 51.4866 16.0413 51.0385C16.0219 49.9747 16.2467 48.9206 16.6984 47.9577C17.1501 46.9947 17.8166 46.1487 18.6464 45.4848C19.4762 44.8209 20.4472 44.3569 21.4844 44.1287C22.5215 43.9004 23.5972 43.9141 24.6282 44.1685C26.1456 44.5756 27.4833 45.4796 28.4287 46.7366C29.374 47.9935 29.8726 49.5312 29.845 51.1049C29.845 52.2084 29.845 52.9386 29.845 53.1294C29.845 53.4945 29.845 53.1294 29.845 56.6059C29.8214 57.1362 29.9759 57.6592 30.2839 58.0911C30.4863 58.3289 30.7416 58.5158 31.0292 58.6368C31.3168 58.7579 31.6288 58.8097 31.94 58.7881H41.3715C41.5991 58.787 41.8243 58.7407 42.0339 58.652C42.2435 58.5632 42.4335 58.4337 42.5929 58.2709C42.7523 58.1081 42.8779 57.9153 42.9625 57.7035C43.0471 57.4918 43.0889 57.2654 43.0856 57.0374C43.0796 56.2943 42.8674 55.5675 42.4729 54.9382C42.1183 54.395 41.9259 53.7618 41.9181 53.1128C41.9181 50.159 41.9181 47.2052 41.9181 44.2515C41.9181 44.1353 41.9926 43.6209 42.0091 43.513C42.1433 42.3438 42.7215 41.2712 43.6239 40.5177C44.1949 40.1226 44.8611 39.8877 45.5532 39.8374C46.2919 39.7316 47.0453 39.8163 47.7422 40.0834C48.4391 40.3505 49.0566 40.7913 49.5362 41.3641C49.7323 41.6419 49.8936 41.9428 50.0164 42.2601C50.5497 43.4863 50.8905 44.7878 51.0267 46.1183C51.1332 47.3967 51.5919 48.6203 52.3516 49.6529C53.0562 50.604 53.9948 51.3558 55.0759 51.8351C55.999 52.2133 56.9899 52.3975 57.987 52.3761C58.9841 52.3547 59.9662 52.1282 60.8723 51.7106C62.4082 50.9802 63.6204 49.7065 64.2756 48.1345C64.6145 47.4146 64.6907 46.5984 64.4909 45.8279ZM48.8655 26.0641C48.4262 26.0641 48.005 25.8893 47.6944 25.5781C47.3838 25.2669 47.2093 24.8448 47.2093 24.4047C47.209 23.9758 47.3744 23.5635 47.6708 23.2541C47.9671 22.9448 48.3716 22.7624 48.7992 22.7453C49.2319 22.7655 49.6416 22.9468 49.9479 23.2537C50.2542 23.5606 50.4352 23.9711 50.4553 24.4047C50.4333 24.8265 50.2605 25.2262 49.9686 25.5309C49.6767 25.8356 49.2851 26.0248 48.8655 26.0641Z" fill="#0097FF"/>
<path d="M124.349 44.2398C124.248 43.9155 124.087 43.6124 123.876 43.3458C123.72 43.1394 123.518 42.9722 123.286 42.8575C122.881 42.6919 122.428 42.6919 122.023 42.8575C121.826 42.9517 121.65 43.0857 121.507 43.251C121.364 43.4162 121.257 43.6092 121.192 43.8177C121.084 44.1736 121.192 44.2316 121.118 44.7531C121.061 45.1639 120.914 45.557 120.686 45.9037C120.46 46.2553 120.144 46.5409 119.772 46.7315C119.376 46.9598 118.911 47.0378 118.462 46.9511C118.013 46.8644 117.61 46.6188 117.329 46.2596C116.299 45.1007 116.889 43.1223 117.18 38.7268C117.221 38.0646 117.312 35.275 117.337 34.2817C117.337 32.6675 117.42 31.0533 117.412 29.4475C117.412 27.4608 117.321 25.8963 117.279 24.903C117.279 24.754 117.221 23.9427 117.13 22.3368C117.088 20.7529 116.96 19.1723 116.748 17.602C116.625 16.7577 116.425 15.9264 116.149 15.1186C115.913 14.3766 115.577 13.6695 115.152 13.0161C114.582 12.2142 113.88 11.5145 113.075 10.9466C112.129 10.179 111.104 9.5131 110.018 8.95995C107.446 7.7364 104.649 7.05177 101.801 6.94845C100.945 6.87206 100.085 6.84994 99.2258 6.88223C98.2747 6.90788 97.3273 7.01031 96.3928 7.18851C95.4362 7.40745 94.5038 7.7208 93.6096 8.1239C88.2592 10.9135 85.0273 15.3835 84.8944 20.2674C84.8113 23.1232 85.8914 29.0418 90.5356 30.9871C92.4957 31.7291 94.6531 31.773 96.642 31.1113C96.7948 31.0651 96.9551 31.0493 97.114 31.0649C97.2729 31.0804 97.4271 31.127 97.5679 31.202C97.7087 31.2769 97.8333 31.3787 97.9346 31.5017C98.0359 31.6246 98.1119 31.7662 98.1582 31.9184C98.2046 32.0706 98.2204 32.2304 98.2048 32.3886C98.1892 32.5469 98.1424 32.7006 98.0672 32.8409C97.992 32.9812 97.8898 33.1053 97.7664 33.2062C97.643 33.3071 97.5009 33.3829 97.3482 33.4291C96.1338 33.8001 94.8715 33.9925 93.6012 34.0002C92.2277 34.0094 90.8662 33.7449 89.5968 33.2221C83.7396 30.7388 82.3687 23.6365 82.4684 20.2095C82.5931 15.7312 84.9609 11.5095 88.8407 8.33912C88.9035 8.28369 88.9513 8.21336 88.9796 8.13465C89.0078 8.05595 89.0157 7.9714 89.0024 7.88886C88.9892 7.80631 88.9552 7.72843 88.9037 7.66244C88.8522 7.59645 88.7848 7.54448 88.7078 7.51134C88.2342 7.32923 87.7939 7.16367 87.3453 7.0064C86.4432 6.69827 85.5218 6.4494 84.587 6.2614C83.0142 5.90156 81.4069 5.71282 79.7933 5.69851C78.5848 5.67079 77.3756 5.70671 76.1709 5.80612C74.8331 5.94926 73.5045 6.16759 72.1914 6.46006C71.2495 6.68639 70.3204 6.96271 69.4082 7.28784C67.9243 7.77288 66.48 8.37064 65.088 9.07584C64.3258 9.45414 63.5853 9.87419 62.8697 10.3341C61.852 10.9559 60.8828 11.6532 59.9702 12.4201C58.9353 13.2258 57.9607 14.1055 57.0541 15.0524L56.4891 15.6815C57.0243 16.1304 57.4941 16.6514 57.8849 17.2295C58.3359 17.9191 58.6934 18.665 58.9483 19.4479C59.2234 20.2557 59.4236 21.087 59.5465 21.9312C59.7446 23.3779 59.8638 24.8341 59.9037 26.2936V26.6082C59.9785 27.8416 60.0117 28.4707 60.0201 28.5948V28.6693C60.0616 29.5799 60.1281 30.954 60.1364 32.7006C60.1364 33.8926 60.1364 35.0846 60.0948 36.2435V37.0713C60.0948 37.8991 59.9951 40.4652 59.9536 41.0943C59.8871 42.1207 59.804 42.9816 59.7293 43.7432C59.6047 45.0428 59.4717 46.3921 59.7293 46.6487C59.765 46.693 59.807 46.7321 59.8539 46.7646C59.9151 46.7558 59.9742 46.7362 60.0284 46.7066C60.1167 46.6606 60.1912 46.592 60.2444 46.508C60.3181 46.3842 60.3635 46.2457 60.3773 46.1023C60.3844 46.0585 60.3844 46.0138 60.3773 45.9699C60.3563 45.6623 60.3929 45.3536 60.4853 45.0593C60.5976 44.6572 60.794 44.2833 61.0618 43.9622C61.3296 43.6412 61.6626 43.3804 62.0389 43.1968C62.4338 43.0219 62.8612 42.9316 63.2934 42.932C63.6928 42.9382 64.0864 43.0284 64.4483 43.1968C64.8641 43.3879 65.2307 43.671 65.52 44.0246C65.8453 44.4242 66.0907 44.8822 66.2428 45.3739C66.5464 46.4738 66.4553 47.6448 65.9852 48.685C65.1948 50.6223 63.716 52.2018 61.8312 53.1219C60.6362 53.6639 59.3391 53.946 58.0261 53.9497C57.3625 53.9483 56.7015 53.8677 56.0571 53.7096C56.0571 54.5705 56.0571 55.4286 56.0571 56.284C56.0118 56.9027 56.1852 57.5177 56.5473 58.0224C56.7851 58.29 57.0826 58.4984 57.4159 58.6307C57.7492 58.7629 58.1091 58.8154 58.4664 58.7839H68.9928C69.2495 58.7828 69.5034 58.7311 69.74 58.6317C69.9765 58.5324 70.191 58.3873 70.3709 58.2049C70.5509 58.0225 70.6929 57.8064 70.7886 57.569C70.8843 57.3317 70.9318 57.0778 70.9285 56.8221C70.919 55.9891 70.6774 55.1752 70.2307 54.4712C69.8273 53.8441 69.6165 53.1134 69.6242 52.3686C69.6242 52.021 69.6242 51.6153 69.6242 51.0773C69.6242 50.9697 69.6242 50.5475 69.6242 50.0426C69.5955 49.0022 69.7769 47.9667 70.1579 46.9976C70.5388 46.0285 71.1114 45.1456 71.8416 44.4014C72.5718 43.6571 73.4447 43.0668 74.4084 42.6653C75.3721 42.2639 76.407 42.0596 77.4516 42.0646C78.4962 42.0696 79.529 42.2838 80.4889 42.6944C81.4487 43.105 82.3159 43.7037 83.0389 44.4549C83.7619 45.2061 84.3259 46.0945 84.6975 47.0671C85.069 48.0398 85.2405 49.077 85.2018 50.1171C85.2018 51.3587 85.2018 52.1782 85.2018 52.3935C85.2018 52.8073 85.2018 52.3935 85.2018 56.2923C85.1602 56.8978 85.3272 57.4994 85.6754 57.9975C85.9077 58.2684 86.2014 58.4803 86.5323 58.6157C86.8631 58.751 87.2215 58.8058 87.5779 58.7756H98.1873C98.444 58.7746 98.698 58.7228 98.9345 58.6235C99.1711 58.5241 99.3855 58.379 99.5655 58.1966C99.7455 58.0142 99.8874 57.7981 99.9831 57.5608C100.079 57.3234 100.126 57.0695 100.123 56.8138C100.114 55.9809 99.872 55.167 99.4252 54.4629C99.034 53.8492 98.8265 53.1371 98.827 52.41C98.827 49.0989 98.827 45.7878 98.827 42.4767C98.827 42.3525 98.9101 41.7731 98.935 41.6489C99.0859 40.3374 99.7374 39.1341 100.754 38.2881C101.387 37.8245 102.133 37.5386 102.915 37.4603C103.749 37.3433 104.6 37.4391 105.388 37.7388C106.175 38.0384 106.874 38.5322 107.418 39.1738C107.639 39.4869 107.82 39.8261 107.958 40.1837C108.563 41.5645 108.95 43.0306 109.104 44.5296C109.227 45.9645 109.748 47.3373 110.608 48.4946C111.398 49.5745 112.458 50.4304 113.682 50.978C114.724 51.4029 115.844 51.6097 116.97 51.5855C118.096 51.5613 119.205 51.3066 120.229 50.8372C121.964 50.0069 123.329 48.5646 124.059 46.7894C124.448 45.9985 124.551 45.0977 124.349 44.2398ZM106.695 22.0637C106.211 22.049 105.751 21.8505 105.41 21.5087C105.068 21.167 104.871 20.708 104.859 20.226C104.858 19.7447 105.045 19.2819 105.38 18.9347C105.714 18.5875 106.171 18.3828 106.653 18.3635C107.138 18.3852 107.597 18.5851 107.942 18.9245C108.288 19.2639 108.494 19.7188 108.523 20.2012C108.496 20.6795 108.296 21.1319 107.96 21.4744C107.624 21.817 107.174 22.0263 106.695 22.0637Z" fill="#9CC330"/>
<path d="M3.80031 89.9368V65.5715C3.80031 65.0312 4.01599 64.513 4.39989 64.1309C4.7838 63.7488 5.30449 63.5342 5.84742 63.5342H11.0273C11.3782 63.5337 11.7233 63.6229 12.0295 63.7933C12.3358 63.9638 12.5928 64.2097 12.7761 64.5075L18.992 74.5456L25.2079 64.5075C25.3912 64.2097 25.6482 63.9638 25.9545 63.7933C26.2607 63.6229 26.6058 63.5337 26.9567 63.5342H32.1532C32.6961 63.5342 33.2168 63.7488 33.6007 64.1309C33.9846 64.513 34.2003 65.0312 34.2003 65.5715V89.9368C34.2003 90.4772 33.9846 90.9954 33.6007 91.3774C33.2168 91.7595 32.6961 91.9741 32.1532 91.9741H28.3407C27.7978 91.9741 27.2771 91.7595 26.8932 91.3774C26.5093 90.9954 26.2936 90.4772 26.2936 89.9368V75.6509L22.0254 82.0185C21.8373 82.2993 21.5821 82.5292 21.2826 82.6876C20.9832 82.846 20.6489 82.9278 20.3098 82.9258H17.3842C17.045 82.9247 16.7113 82.8396 16.4133 82.6784C16.1153 82.5171 15.8623 82.2847 15.6769 82.002L11.5329 75.7416V89.9451C11.5329 90.4854 11.3172 91.0036 10.9333 91.3857C10.5494 91.7678 10.0287 91.9824 9.4858 91.9824H5.84742C5.57789 91.9824 5.31101 91.9294 5.06211 91.8265C4.8132 91.7236 4.58716 91.5728 4.39696 91.3828C4.20676 91.1927 4.05614 90.9671 3.95375 90.719C3.85136 90.4709 3.79922 90.2051 3.80031 89.9368Z" fill="#0097FF"/>
<path d="M38.95 89.9445V65.5721C38.95 65.0316 39.1685 64.5132 39.5574 64.1311C39.9463 63.7489 40.4738 63.5342 41.0239 63.5342H44.8107C45.3549 63.5428 45.8738 63.7614 46.2555 64.1426C46.6372 64.5239 46.8511 65.0373 46.851 65.5721V79.5404L57.4726 64.417C57.6603 64.1487 57.9108 63.9286 58.203 63.775C58.4951 63.6214 58.8205 63.5388 59.1518 63.5342H63.476C64.0261 63.5342 64.5536 63.7489 64.9425 64.1311C65.3314 64.5132 65.5499 65.0316 65.5499 65.5721V89.9445C65.5499 90.485 65.3314 91.0033 64.9425 91.3855C64.5536 91.7677 64.0261 91.9824 63.476 91.9824H59.7312C59.1812 91.9824 58.6536 91.7677 58.2647 91.3855C57.8758 91.0033 57.6573 90.485 57.6573 89.9445V75.9761L47.0609 91.0996C46.8732 91.3678 46.6227 91.588 46.3305 91.7416C46.0383 91.8952 45.713 91.9778 45.3816 91.9824H41.0323C40.7592 91.9835 40.4886 91.9316 40.236 91.8296C39.9834 91.7277 39.7538 91.5778 39.5604 91.3884C39.3669 91.1991 39.2134 90.9741 39.1086 90.7263C39.0039 90.4785 38.9499 90.2128 38.95 89.9445Z" fill="#0097FF"/>
<path d="M70.3003 89.9368V65.5715C70.3003 65.0312 70.5159 64.513 70.8996 64.1309C71.2833 63.7488 71.8037 63.5342 72.3463 63.5342H76.1567C76.6993 63.5342 77.2198 63.7488 77.6035 64.1309C77.9872 64.513 78.2027 65.0312 78.2027 65.5715V75.0817L87.4388 64.2518C87.6316 64.026 87.8716 63.8448 88.142 63.7208C88.4124 63.5969 88.7067 63.5332 89.0044 63.5342H92.9059C93.3012 63.5321 93.6886 63.6441 94.0213 63.8566C94.354 64.069 94.6178 64.3729 94.7807 64.7315C94.9437 65.0901 94.9989 65.488 94.9396 65.8771C94.8803 66.2662 94.7091 66.6299 94.4466 66.9242L86.6187 75.7746L95.5897 88.7903C95.7998 89.0942 95.923 89.4491 95.9462 89.8173C95.9695 90.1854 95.892 90.5529 95.7219 90.8806C95.5518 91.2083 95.2956 91.4839 94.9806 91.6779C94.6655 91.872 94.3035 91.9772 93.9331 91.9824H89.4103C89.0819 91.9759 88.76 91.8909 88.4716 91.7344C88.1833 91.5779 87.937 91.3546 87.7536 91.0833L81.1931 81.4246L78.2856 84.6167V89.9368C78.2856 90.4772 78.07 90.9954 77.6863 91.3774C77.3026 91.7595 76.7822 91.9741 76.2395 91.9741H72.4291C72.1536 91.9853 71.8786 91.9408 71.6207 91.8434C71.3628 91.746 71.1274 91.5977 70.9285 91.4074C70.7297 91.2171 70.5715 90.9887 70.4636 90.736C70.3556 90.4833 70.3001 90.2115 70.3003 89.9368Z" fill="#0097FF"/>
<path d="M100.7 89.9445V65.5721C100.7 65.0316 100.913 64.5132 101.291 64.1311C101.669 63.7489 102.181 63.5342 102.716 63.5342H112.745C116.33 63.5342 119.175 64.4197 121.281 66.1909C122.332 67.0926 123.164 68.227 123.711 69.5062C124.259 70.7853 124.508 72.1748 124.439 73.567C124.493 75.5596 123.94 77.521 122.856 79.1856C121.802 80.7475 120.314 81.959 118.58 82.6674C116.597 83.4622 114.478 83.8492 112.345 83.806H108.493V89.9445C108.493 90.485 108.281 91.0033 107.903 91.3855C107.525 91.7677 107.012 91.9824 106.478 91.9824H102.724C102.459 91.9835 102.196 91.9316 101.95 91.8296C101.705 91.7277 101.481 91.5778 101.293 91.3884C101.105 91.1991 100.956 90.9741 100.854 90.7263C100.753 90.4785 100.7 90.2128 100.7 89.9445ZM108.493 77.6758H112.206C113.381 77.7422 114.539 77.379 115.471 76.6527C115.865 76.3095 116.177 75.8801 116.384 75.397C116.59 74.9139 116.685 74.3897 116.662 73.864C116.692 73.3351 116.599 72.8064 116.393 72.3197C116.186 71.8329 115.87 71.4013 115.471 71.0588C114.515 70.3532 113.347 70.0061 112.166 70.0769H108.493V77.6758Z" fill="#0097FF"/>
<path d="M127.301 77.761C127.29 75.7263 127.689 73.7114 128.473 71.8441C129.218 70.037 130.299 68.3974 131.654 67.0176C133.052 65.6226 134.7 64.5228 136.507 63.7802C140.388 62.188 144.712 62.188 148.592 63.7802C150.384 64.5163 152.019 65.6075 153.404 66.9923C154.756 68.3772 155.827 70.0267 156.552 71.8441C157.319 73.7161 157.709 75.729 157.7 77.761C157.709 79.7956 157.31 81.8102 156.528 83.6779C155.787 85.4881 154.709 87.1308 153.355 88.5128C151.962 89.904 150.319 91.0009 148.518 91.7418C146.297 92.6515 143.909 93.0473 141.524 92.9012C139.138 92.7552 136.813 92.0708 134.712 90.8965C132.447 89.6106 130.562 87.7145 129.26 85.4107C127.95 83.0897 127.273 80.4465 127.301 77.761ZM135.327 77.761C135.29 79.8155 136.024 81.8053 137.376 83.3144C138.043 84.0422 138.847 84.622 139.739 85.0183C140.63 85.4146 141.591 85.6189 142.562 85.6189C143.533 85.6189 144.494 85.4146 145.385 85.0183C146.277 84.622 147.081 84.0422 147.747 83.3144C149.057 81.773 149.779 79.7935 149.779 77.7441C149.779 75.6947 149.057 73.7152 147.747 72.1738C147.093 71.4181 146.287 70.8186 145.385 70.4172C144.483 70.0157 143.507 69.8219 142.525 69.8493C141.557 69.8202 140.594 70.0103 139.704 70.406C138.815 70.8018 138.02 71.3936 137.376 72.14C136.01 73.668 135.273 75.6832 135.319 77.761H135.327Z" fill="#0097FF"/>
<path d="M161.501 78.2223C161.495 76.2515 161.873 74.299 162.612 72.4781C163.311 70.732 164.339 69.1428 165.639 67.8007C166.967 66.4575 168.547 65.3999 170.284 64.6906C172.131 63.9201 174.109 63.5296 176.104 63.5418C178.001 63.478 179.89 63.8171 181.651 64.5376C183.413 65.2581 185.008 66.3441 186.335 67.7268C186.53 67.9322 186.68 68.177 186.776 68.4453C186.872 68.7136 186.911 68.9995 186.891 69.2843C186.871 69.5691 186.793 69.8465 186.661 70.0985C186.529 70.3504 186.347 70.5712 186.126 70.7467L183.558 72.7818C183.184 73.0766 182.72 73.2262 182.248 73.2036C181.776 73.1811 181.327 72.9879 180.982 72.6587C179.647 71.3372 177.86 70.5983 175.999 70.5989C175.096 70.5788 174.199 70.7669 173.377 71.1491C172.555 71.5313 171.827 72.0978 171.25 72.8064C170.041 74.3536 169.383 76.2731 169.383 78.2511C169.383 80.2291 170.041 82.1485 171.25 83.6958C171.829 84.4024 172.556 84.967 173.378 85.3477C174.201 85.7284 175.096 85.9155 175.999 85.895C177.207 85.9318 178.401 85.631 179.453 85.0251C180.072 84.6372 180.644 84.1773 181.159 83.6547C181.494 83.3264 181.931 83.1277 182.394 83.0932C182.857 83.0588 183.317 83.1906 183.695 83.466L186.319 85.3862C186.549 85.5547 186.741 85.7711 186.883 86.021C187.024 86.271 187.112 86.5487 187.14 86.8358C187.168 87.123 187.136 87.4129 187.046 87.6865C186.956 87.96 186.81 88.2109 186.617 88.4224C186.133 88.9577 185.614 89.4594 185.064 89.9241C183.876 90.8826 182.533 91.6213 181.095 92.1069C179.374 92.6862 177.57 92.9637 175.758 92.9275C173.241 92.9527 170.761 92.3017 168.569 91.0402C166.408 89.7972 164.62 87.9754 163.401 85.7719C162.122 83.4717 161.466 80.8661 161.501 78.2223Z" fill="#0097FF"/>
<path d="M3.80029 100.929V98.6207H12.3503V100.929H9.42063V108.103H6.76535V100.929H3.80029Z" fill="#0097FF"/>
<path d="M13.3 108.086V98.6207H20.8405V100.858H15.8703V102.295H20.3639V104.369H15.8703V105.866H20.9V108.103L13.3 108.086Z" fill="#0097FF"/>
<path d="M21.8499 108.103V98.6288H25.7047C26.6821 98.566 27.6487 98.8713 28.4326 99.4901C28.7721 99.7925 29.0404 100.174 29.2162 100.605C29.3919 101.035 29.4704 101.503 29.4453 101.971C29.4614 102.634 29.2847 103.286 28.9389 103.84C28.6029 104.361 28.1284 104.765 27.575 105.003C26.9412 105.267 26.2638 105.396 25.5822 105.382H24.3408V108.103H21.8499ZM24.3 103.332H25.5251C25.9016 103.354 26.2729 103.231 26.5705 102.987C26.6959 102.872 26.7949 102.729 26.86 102.568C26.9251 102.407 26.9546 102.232 26.9461 102.057C26.9571 101.88 26.9288 101.704 26.8636 101.541C26.7984 101.378 26.698 101.233 26.5705 101.118C26.2656 100.884 25.8934 100.768 25.5169 100.791H24.3408L24.3 103.332Z" fill="#0097FF"/>
<path d="M30.4001 108.103V98.6288H34.2514C35.2299 98.566 36.1977 98.8713 36.9825 99.4901C37.3202 99.7907 37.5874 100.169 37.7633 100.597C37.9392 101.024 38.019 101.488 37.9964 101.954C38.0257 102.619 37.8601 103.277 37.5222 103.84C37.1857 104.361 36.7107 104.765 36.1566 105.003C35.5221 105.267 34.8438 105.396 34.1615 105.382H32.8941V108.103H30.4001ZM32.8532 103.332H34.0388C34.4158 103.354 34.7876 103.231 35.0855 102.987C35.2111 102.872 35.3102 102.729 35.3754 102.568C35.4405 102.407 35.47 102.232 35.4616 102.057C35.4726 101.88 35.4443 101.704 35.379 101.541C35.3137 101.378 35.2132 101.233 35.0855 101.118C34.7803 100.884 34.4076 100.768 34.0307 100.791H32.8941L32.8532 103.332Z" fill="#0097FF"/>
<path d="M39.8999 108.103V98.6207H42.1506V103.966L45.3467 98.6207H47.4999V108.103H45.2492V102.759L42.0531 108.103H39.8999Z" fill="#0097FF"/>
<path d="M49.3999 100.929V98.6207H56.9999V100.929H54.3906V108.103H52.0328V100.929H49.3999Z" fill="#0097FF"/>
<path d="M57.95 103.375C57.948 102.739 58.0736 102.109 58.3187 101.526C58.551 100.957 58.8887 100.442 59.3128 100.008C59.7492 99.5713 60.264 99.2275 60.828 98.9957C62.0403 98.4957 63.3917 98.4957 64.6039 98.9957C65.165 99.2248 65.6771 99.5658 66.1111 99.9994C66.5303 100.431 66.8628 100.944 67.0891 101.509C67.3298 102.097 67.4525 102.729 67.4499 103.367C67.4514 104.003 67.3258 104.633 67.0811 105.217C66.849 105.785 66.5113 106.301 66.087 106.735C65.6519 107.164 65.14 107.503 64.5799 107.73C63.9817 107.981 63.3415 108.108 62.6959 108.103C61.8551 108.112 61.0265 107.894 60.2909 107.473C59.5847 107.07 58.9973 106.477 58.5913 105.756C58.1748 105.036 57.9533 104.214 57.95 103.375ZM60.4592 103.375C60.4468 104.02 60.6768 104.644 61.1006 105.117C61.3084 105.34 61.5575 105.517 61.833 105.638C62.1085 105.759 62.4047 105.821 62.704 105.821C63.0032 105.821 63.2994 105.759 63.5749 105.638C63.8504 105.517 64.0995 105.34 64.3073 105.117C64.7155 104.634 64.9405 104.013 64.9405 103.371C64.9405 102.729 64.7155 102.109 64.3073 101.625C64.1062 101.392 63.859 101.206 63.5824 101.08C63.3057 100.954 63.0062 100.891 62.704 100.895C62.402 100.887 62.1019 100.947 61.8249 101.072C61.5479 101.197 61.3007 101.383 61.1006 101.617C60.6728 102.094 60.4426 102.725 60.4592 103.375Z" fill="#0097FF"/>
<path d="M69.3501 108.103V98.6288H73.2014C74.1799 98.566 75.1477 98.8713 75.9324 99.4901C76.2702 99.7907 76.5374 100.169 76.7133 100.597C76.8891 101.024 76.9689 101.488 76.9464 101.954C76.9625 102.616 76.7856 103.269 76.4394 103.823C76.103 104.344 75.6279 104.748 75.0739 104.985C74.4393 105.25 73.7611 105.379 73.0787 105.364H71.844V108.086L69.3501 108.103ZM71.8031 103.332H72.9888C73.3657 103.354 73.7375 103.231 74.0354 102.987C74.161 102.872 74.2602 102.729 74.3253 102.568C74.3905 102.407 74.42 102.232 74.4116 102.057C74.4225 101.88 74.3942 101.704 74.3289 101.541C74.2636 101.378 74.1631 101.233 74.0354 101.118C73.7302 100.884 73.3575 100.768 72.9806 100.791H71.844L71.8031 103.332Z" fill="#0097FF"/>
<path d="M77.8999 108.103V98.6207H80.437V103.966L84.0397 98.6207H86.4499V108.103H83.9128V102.759L80.3101 108.103H77.8999Z" fill="#0097FF"/>
<path d="M87.3999 108.061L89.6131 104.788C89.0531 104.555 88.5711 104.163 88.2246 103.658C87.8795 103.119 87.7061 102.485 87.7281 101.842C87.7202 101.348 87.8239 100.858 88.0311 100.411C88.2228 100.007 88.5124 99.6593 88.8726 99.4004C89.24 99.1357 89.6501 98.9386 90.0844 98.818C90.5696 98.6827 91.0709 98.6164 91.5739 98.6209H95.9499V108.043H93.4253V105.277H92.2976L90.4294 108.103L87.3999 108.061ZM90.2864 102.064C90.2781 102.226 90.3064 102.387 90.3691 102.536C90.4319 102.684 90.5274 102.816 90.6482 102.921C90.9362 103.147 91.2949 103.26 91.6581 103.238H93.3411V100.891H91.6581C91.2909 100.868 90.9274 100.977 90.6314 101.199C90.5223 101.309 90.4379 101.442 90.3841 101.588C90.3304 101.735 90.3085 101.891 90.32 102.047L90.2864 102.064Z" fill="#0097FF"/>
<path d="M100.7 108.103V98.6207H109.25V108.103H106.649V100.922H103.302V108.103H100.7Z" fill="#0097FF"/>
<path d="M111.15 108.103V98.6288H115.005C115.983 98.566 116.95 98.8713 117.734 99.4901C118.071 99.7907 118.338 100.169 118.514 100.597C118.689 101.024 118.769 101.488 118.746 101.954C118.763 102.616 118.586 103.269 118.24 103.823C117.904 104.344 117.429 104.748 116.876 104.985C116.242 105.25 115.565 105.379 114.883 105.364H113.65V108.086L111.15 108.103ZM113.601 103.332H114.785C115.161 103.354 115.533 103.231 115.83 102.987C115.956 102.872 116.055 102.729 116.12 102.568C116.185 102.407 116.215 102.232 116.206 102.057C116.217 101.88 116.189 101.704 116.124 101.541C116.058 101.378 115.958 101.233 115.83 101.118C115.526 100.884 115.153 100.768 114.777 100.791H113.601V103.332Z" fill="#0097FF"/>
<path d="M118.75 108.103L122.728 98.6207H125.222L129.2 108.103H126.426L125.739 106.393H122.134L121.473 108.103H118.75ZM122.898 104.392H124.993L123.95 101.716L122.898 104.392Z" fill="#0097FF"/>
<path d="M129.2 106.549L130.471 104.898C130.791 105.248 131.178 105.525 131.607 105.714C132.036 105.903 132.499 105.999 132.967 105.996C133.319 106.02 133.67 105.933 133.973 105.748C134.08 105.677 134.168 105.579 134.229 105.464C134.289 105.348 134.32 105.219 134.319 105.088C134.319 104.538 133.844 104.263 132.894 104.263H131.96V102.365H132.862C133.193 102.388 133.523 102.31 133.812 102.142C133.91 102.079 133.99 101.991 134.045 101.887C134.1 101.783 134.128 101.666 134.126 101.548C134.126 101.435 134.098 101.324 134.045 101.226C133.991 101.127 133.914 101.045 133.82 100.986C133.579 100.833 133.298 100.759 133.015 100.772C132.596 100.778 132.181 100.862 131.791 101.019C131.403 101.159 131.042 101.372 130.729 101.647L129.514 100.178C129.997 99.6745 130.575 99.2775 131.213 99.0108C131.851 98.7441 132.535 98.6132 133.224 98.6261C134.081 98.5805 134.929 98.824 135.639 99.3194C135.955 99.541 136.207 99.8465 136.367 100.203C136.527 100.56 136.59 100.955 136.549 101.345C136.507 101.736 136.363 102.107 136.132 102.421C135.901 102.734 135.592 102.977 135.236 103.124C135.683 103.266 136.08 103.538 136.379 103.908C136.67 104.294 136.818 104.774 136.798 105.261C136.804 105.65 136.72 106.036 136.554 106.386C136.387 106.735 136.143 107.04 135.84 107.275C135.106 107.846 134.201 108.138 133.28 108.1C132.692 108.107 132.105 108.037 131.534 107.894C131.089 107.789 130.661 107.619 130.262 107.39C129.884 107.143 129.528 106.862 129.2 106.549Z" fill="#0097FF"/>
<path d="M137.75 110V105.796H138.559C138.883 104.862 139.116 103.895 139.255 102.911C139.419 101.568 139.492 100.215 139.474 98.8619V98.6207H146.247V105.796H147.25L146.967 110H144.855V108.105H140.121L139.959 110H137.75ZM141.117 105.796H143.754V100.929H141.812V100.998C141.821 101.863 141.762 102.728 141.634 103.582C141.514 104.333 141.341 105.073 141.117 105.796Z" fill="#0097FF"/>
<path d="M148.2 108.103V98.6207H150.765V102.198H154.185V98.6207H156.75V108.103H154.185V104.491H150.833V108.103H148.2Z" fill="#0097FF"/>
<path d="M158.65 108.103V98.6207H161.187V103.966L164.79 98.6207H167.2V108.103H164.663V102.759L161.06 108.103H158.65Z" fill="#0097FF"/>
<path d="M168.15 108.078V98.6207H170.839V102.464L174.236 98.6207H177.48L173.787 102.704L177.65 108.103H174.343L171.861 104.587L170.857 105.653V108.103L168.15 108.078Z" fill="#0097FF"/>
<path d="M177.65 108.103L181.266 98.6207H183.533L187.15 108.103H184.628L184.004 106.393H180.727L180.125 108.103H177.65ZM181.421 104.392H183.325L182.377 101.716L181.421 104.392Z" fill="#0097FF"/>
</svg>
